<svg width="1200" height="900" viewBox="0 0 1200 900" fill="none" xmlns="http://www.w3.org/2000/svg">
  <rect width="1200" height="900" rx="36" fill="#F8F9FF"/>
  <rect x="88" y="84" width="1024" height="732" rx="32" fill="#FFFFFF" stroke="#E2E8F0" stroke-width="3"/>
  <rect x="158" y="158" width="884" height="224" rx="24" fill="#0A1D37"/>
  <path d="M218 270H360L400 214L468 330L526 238L574 270H688" stroke="#E11D48" stroke-width="12" stroke-linecap="round" stroke-linejoin="round"/>
  <circle cx="868" cy="270" r="62" fill="#E11D48" fill-opacity=".18"/>
  <path d="M868 223C899 255 915 277 915 303C915 338 892 360 868 360C844 360 821 338 821 303C821 277 837 255 868 223Z" fill="#E11D48"/>
  <rect x="158" y="452" width="260" height="224" rx="24" fill="#F1F5F9"/>
  <rect x="470" y="452" width="260" height="224" rx="24" fill="#F1F5F9"/>
  <rect x="782" y="452" width="260" height="224" rx="24" fill="#F1F5F9"/>
  <circle cx="288" cy="540" r="48" fill="#0A1D37" fill-opacity=".12"/>
  <circle cx="600" cy="540" r="48" fill="#E11D48" fill-opacity=".14"/>
  <circle cx="912" cy="540" r="48" fill="#0A1D37" fill-opacity=".12"/>
  <rect x="224" y="620" width="128" height="14" rx="7" fill="#64748B" fill-opacity=".55"/>
  <rect x="536" y="620" width="128" height="14" rx="7" fill="#64748B" fill-opacity=".55"/>
  <rect x="848" y="620" width="128" height="14" rx="7" fill="#64748B" fill-opacity=".55"/>
</svg>
